# AST/ASF file generated using VICON BodyLanguage
# -----------------------------------------------
:version 1.10
:name VICON
:units
  mass 1.0
  length 0.45
  angle deg
:documentation
   .ast/.asf automatically generated from VICON data using
   VICON BodyBuilder and BodyLanguage model FoxedUp or BRILLIANT.MOD
:root
   order TX TY TZ RX RY RZ
   axis XYZ
   position 0 0 0  
   orientation 0 0 0 
:bonedata
  begin
     id 1 
     name lhipjoint
     direction 0.693937 -0.600361 0.397515 
     length 2.37164 
     axis 0 0 0  XYZ
  end
  begin
     id 2 
     name lfemur
     direction 0.34202 -0.939693 0  
     length 6.18497  
     axis 0 0 20  XYZ
    dof rx ry rz
    limits (-160.0 20.0)
           (-70.0 70.0)
           (-60.0 70.0)
  end
  begin
     id 3 
     name ltibia
     direction 0.34202 -0.939693 0   
     length 6.91601   
     axis 0 0 20   XYZ
    dof rx
    limits (-10.0 170.0)
  end
  begin
     id 4 
     name lfoot
     direction 0.0978718 -0.2689 0.958182   
     length 1.81453   
     axis -90 7.62852e-016 20   XYZ
    dof rx rz
    limits (-45.0 90.0)
           (-70.0 20.0)
  end
  begin
     id 5 
     name ltoes
     direction 1.53569e-011 -4.21951e-011 1   
     length 0.912052   
     axis -90 7.62852e-016 20   XYZ
    dof rx
    limits (-90.0 20.0)
  end
  begin
     id 6 
     name rhipjoint
     direction -0.643996 -0.637876 0.422354   
     length 2.23216  
     axis 0 0 0  XYZ 
  end
  begin
     id 7 
     name rfemur
     direction -0.34202 -0.939693 0   
     length 6.15404   
     axis 0 0 -20   XYZ
    dof rx ry rz
    limits (-160.0 20.0)
           (-70.0 70.0)
           (-70.0 60.0)
  end
  begin
     id 8 
     name rtibia
     direction -0.34202 -0.939693 0   
     length 6.86744   
     axis 0 0 -20   XYZ
    dof rx
    limits (-10.0 170.0)
 end
 begin
     id 9 
     name rfoot
     direction -0.118701 -0.326127 0.937844   
     length 1.9243  
     axis -90 -7.62852e-016 -20   XYZ
    dof rx rz
    limits (-45.0 90.0)
           (-20.0 70.0)
  end
  begin
     id 10 
     name rtoes
     direction -1.5356e-011 -4.2181e-011 1   
     length 0.958865   
     axis -90 -7.62852e-016 -20   XYZ
    dof rx
    limits (-90.0 20.0)
  end
  begin
     id 11 
     name lowerback
     direction 0.0310826 0.968686 -0.246334   
     length 2.00021   
     axis 0 0 0   XYZ
    dof rx ry rz
    limits (-20.0 45.0)
           (-30.0 30.0)
           (-30.0 30.0)
  end
  begin
     id 12 
     name upperback
     direction -0.0152834 0.999474 -0.0286152   
     length 2.03728   
     axis 0 0 0   XYZ
    dof rx ry rz
    limits (-20.0 45.0)
           (-30.0 30.0)
           (-30.0 30.0)
  end
  begin
     id 13 
     name thorax
     direction -0.0323701 0.996236 0.0804149   
     length 2.16   
     axis 0 0 0   XYZ
    dof rx ry rz
    limits (-20.0 45.0)
           (-30.0 30.0)
           (-30.0 30.0)
  end
  begin
     id 14 
     name lowerneck
     direction 0.0307935 0.982251 0.185027   
     length 1.43558   
     axis 0 0 0   XYZ
    dof rx ry rz
    limits (-20.0 45.0)
           (-30.0 30.0)
           (-30.0 30.0)
  end
  begin
     id 15 
     name upperneck
     direction -0.0927153 0.994775 0.0427454   
     length 1.44603   
     axis 0 0 0   XYZ
    dof rx ry rz
    limits (-20.0 45.0)
           (-30.0 30.0)
           (-30.0 30.0)
  end
  begin
     id 16
     name head
     direction -0.0341265 0.999406 -0.00472033  
     length 1.45931  
     axis 0 0 0   XYZ
    dof rx ry rz
    limits (-20.0 45.0)
           (-30.0 30.0)
           (-30.0 30.0)
  end
  begin
     id 17 
     name lclavicle
     direction 0.820755 0.555306 -0.134151  
     length 2.66075  
     axis 0 0 0   XYZ
    dof ry rz
    limits (-20.0 10.0)
           (0.0 20.0)
  end
  begin
     id 18 
     name lhumerus
     direction 1 -4.48971e-011 5.24853e-027   
     length 5.0546   
     axis -180 -30 -90   XYZ
    dof rx ry rz
    limits (-60.0 90.0)
           (-90.0 90.0)
           (-90.0 90.0)
  end
  begin
     id 19
     name lradius
     direction 1 -4.48971e-011 2.76575e-028   
     length 3.39013   
     axis -180 -30 -90   XYZ
    dof rx
    limits (-10.0 170.0)
  end
  begin
     id 20
     name lwrist
     direction 1 -4.48939e-011 -2.27826e-027   
     length 1.69507   
     axis 2.17013e-015 90 90   XYZ
    dof ry
    limits (-180.0 0.0)
 end
  begin
     id 21 
     name lhand
     direction 1 -4.49009e-011 -4.55652e-027   
     length 0.572425   
     axis 2.90745e-015 90 90   XYZ
    dof rx rz
    limits (-90.0 90.0)
           (-45.0 45.0)
  end
  begin
     id 22 
     name lfingers
     direction 1 -4.48955e-011 -9.11303e-027   
     length 0.461504   
     axis 5.81489e-015 90 90   XYZ
    dof rx
    limits (0.0 90.0)
  end
  begin
     id 23
     name lthumb
     direction 0.707107 -6.34929e-011 0.707107   
     length 0.66263   
     axis -90 45 2.85299e-015   XYZ
    dof rx rz
    limits (-45.0 45.0)
           (-45.0 45.0)
  end
  begin
     id 24 
     name rclavicle
     direction -0.754477 0.632921 -0.173712   
     length 2.73081  
     axis 0 0 0   XYZ 
    dof ry rz
    limits (-10.0 20.0)
           (-20.0 0.0)
  end
  begin
     id 25 
     name rhumerus
     direction -1 -4.48969e-011 5.1496e-027  
     length 5.0701   
     axis -180 30 90   XYZ
    dof rx ry rz
    limits (-90.0 60.0)
           (-90.0 90.0)
           (-90.0 90.0)
  end
  begin
     id 26 
     name rradius
     direction -1 -4.48967e-011 -7.15624e-028   
     length 3.14957   
     axis -180 30 90   XYZ
    dof rx
    limits (-10.0 170.0)
  end
  begin
     id 27 
     name rwrist
     direction -1 -4.48938e-011 -2.27826e-027   
     length 1.57479   
     axis 2.17013e-015 -90 -90   XYZ
    dof ry
    limits (-180.0 0.0)
  end
  begin
     id 28
     name rhand
     direction -1 -4.49008e-011 -4.55652e-027   
     length 0.718191   
     axis 2.90745e-015 -90 -90   XYZ
    dof rx rz
    limits (-90.0 90.0)
           (-45.0 45.0)
  end
  begin
     id 29
     name rfingers
     direction -1 -4.48953e-011 -9.11303e-027   
     length 0.579024   
     axis 5.81489e-015 -90 -90   XYZ
    dof rx
    limits (0.0 90.0)
  end
  begin
     id 30
     name rthumb
     direction -0.707107 -6.34937e-011 0.707107   
     length 0.831366   
     axis -90 -45 -2.85299e-015   XYZ
    dof rx rz
    limits (-45.0 45.0)
           (-45.0 45.0)
  end
:hierarchy
  begin
    root lhipjoint rhipjoint lowerback
    lhipjoint lfemur
    lfemur ltibia
    ltibia lfoot
    lfoot ltoes
    rhipjoint rfemur
    rfemur rtibia
    rtibia rfoot
    rfoot rtoes
    lowerback upperback
    upperback thorax
    thorax lowerneck lclavicle rclavicle
    lowerneck upperneck
    upperneck head
    lclavicle lhumerus
    lhumerus lradius
    lradius lwrist
    lwrist lhand lthumb
    lhand lfingers
    rclavicle rhumerus
    rhumerus rradius
    rradius rwrist
    rwrist rhand rthumb
    rhand rfingers
  end

#!OML:ASF H:\Male1\Project 1\Capture day 1\Session 1\Male1.ASF
:FULLY-SPECIFIED
:DEGREES
34
root -25.6306 15.1755 0.061173 -173.485 -86.2915 171.896
lowerback 2.82604 1.93331 -3.46448
upperback 3.22173 2.46931 -1.50573
thorax 1.64594 1.15026 0.357284
lowerneck -10.1342 1.22714 4.29691
upperneck 4.83147 1.01459 0.418686
head 3.39005 0.602211 -0.561231
rclavicle -6.75868e-015 3.97569e-015
rhumerus -31.2006 1.03862 -91.3222
rradius 30.8565
rwrist -14.8805
rhand -19.1904 -1.43852
rfingers 7.12502
rthumb 7.12133 -31.2987
lclavicle -6.75868e-015 3.97569e-015
lhumerus -27.9698 -5.734 89.8588
lradius 27.1546
lwrist -3.70518
lhand -18.6615 15.7435
lfingers 7.12502
lthumb 7.63185 45.5858
rfemur -6.84458 19.1442 22.3147
rtibia 28.0258
rfoot -28.4646 -29.0406
rtoes -19.6627
lfemur -4.77077 -19.5265 -24.889
ltibia 25.9023
lfoot -24.2738 26.1836
ltoes 0.960136
35
root -25.6305 15.1754 0.0616622 -173.455 -86.2921 171.867
lowerback 2.79266 1.93489 -3.43954
upperback 3.2439 2.47381 -1.52188
thorax 1.68904 1.15216 0.328362
lowerneck -10.2115 1.21555 4.31882
upperneck 4.90822 0.988472 0.447004
head 3.4314 0.592304 -0.557241
rclavicle -1.87852e-014 1.51076e-014
rhumerus -31.1686 0.993865 -91.3348
rradius 30.895
rwrist -14.9039
rhand -19.1174 -1.50912
rfingers 7.12502
rthumb 7.19182 -31.3669
lclavicle -1.87852e-014 1.51076e-014
lhumerus -27.958 -5.66582 89.8364
lradius 27.1264
lwrist -3.81643
lhand -18.7812 15.535
lfingers 7.12502
lthumb 7.51632 45.3814
rfemur -6.84169 19.1351 22.3088
rtibia 28.0148
rfoot -28.4986 -29.0212
rtoes -19.5728
lfemur -4.76553 -19.5813 -24.9039
ltibia 25.914
lfoot -24.3437 26.2101
ltoes 1.12277
36
root -25.6307 15.175 0.06193 -172.566 -86.2908 170.996
lowerback 2.75552 1.9423 -3.46083
upperback 3.24428 2.48521 -1.55862
thorax 1.71068 1.15732 0.303685
lowerneck -10.3139 1.19162 4.39683
upperneck 5.03824 0.941096 0.412915
head 3.49714 0.571483 -0.585237
rclavicle 1.93815e-014 -3.97569e-014
rhumerus -31.1755 0.972924 -91.3667
rradius 30.8958
rwrist -14.9466
rhand -19.1493 -1.54569
rfingers 7.12502
rthumb 7.16104 -31.4045
lclavicle 1.93815e-014 -3.97569e-014
lhumerus -28.0025 -5.61027 89.8071
lradius 27.1697
lwrist -3.89992
lhand -18.6809 15.5747
lfingers 7.12502
lthumb 7.61312 45.4177
rfemur -6.89151 19.0973 22.2324
rtibia 28.0612
rfoot -28.5441 -29.0034
rtoes -19.6162
lfemur -4.74462 -19.7169 -24.9724
ltibia 25.8688
lfoot -24.5795 26.1401
ltoes 2.53569
37
root -25.6305 15.1739 0.0618264 -170.922 -86.3054 169.332
lowerback 2.77585 1.93105 -3.56454
upperback 3.24534 2.46705 -1.59095
thorax 1.69833 1.14617 0.32781
lowerneck -10.3852 1.18495 4.48102
upperneck 5.13984 0.918679 0.36858
head 3.54764 0.562189 -0.616327
rclavicle 3.77691e-015 1.82882e-014
rhumerus -31.1957 0.902141 -91.374
rradius 30.8917
rwrist -14.9617
rhand -19.1397 -1.43735
rfingers 7.12502
rthumb 7.17034 -31.2959
lclavicle 3.77691e-015 1.82882e-014
lhumerus -28.0125 -5.5037 89.7803
lradius 27.176
lwrist -3.89302
lhand -18.3024 15.9913
lfingers 7.12502
lthumb 7.9785 45.8207
rfemur -6.90901 19.0683 22.1229
rtibia 28.1372
rfoot -28.5619 -28.9878
rtoes -19.5907
lfemur -4.67785 -19.8054 -25.0994
ltibia 25.7898
lfoot -24.6643 26.1084
ltoes 3.86693
38
root -25.6302 15.1733 0.0617302 -168.928 -86.3075 167.296
lowerback 2.80527 1.92932 -3.69171
upperback 3.26014 2.4606 -1.62335
thorax 1.69383 1.13991 0.364648
lowerneck -10.4084 1.17875 4.45369
upperneck 5.18894 0.905691 0.445205
head 3.56819 0.559339 -0.586818
rclavicle 1.51076e-014 -2.46493e-014
rhumerus -31.2127 0.718676 -91.3503
rradius 30.8876
rwrist -14.7667
rhand -19.2127 -1.26345
rfingers 7.12502
rthumb 7.09986 -31.1244
lclavicle 1.51076e-014 -2.46493e-014
lhumerus -27.9975 -5.45516 89.785
lradius 27.1382
lwrist -3.83856
lhand -17.9105 16.3402
lfingers 7.12502
lthumb 8.35674 46.1549
rfemur -6.8908 19.0667 21.9976
rtibia 28.1971
rfoot -28.5407 -29.003
rtoes -19.7159
lfemur -4.60883 -19.7781 -25.248
ltibia 25.7252
lfoot -24.5747 26.0964
ltoes 3.98502
39
root -25.63 15.1737 0.0613348 -168.12 -86.2729 166.495
lowerback 2.76761 1.94809 -3.74273
upperback 3.27788 2.48695 -1.64157
thorax 1.73119 1.15113 0.375538
lowerneck -10.3921 1.1377 4.41492
upperneck 5.1827 0.851549 0.512802
head 3.56057 0.534406 -0.560924
rclavicle 1.32192e-014 -7.95139e-016
rhumerus -31.2106 0.642567 -91.3655
rradius 30.8191
rwrist -14.4765
rhand -19.4816 -1.05271
rfingers 7.12502
rthumb 6.84022 -30.9222
lclavicle 1.32192e-014 -7.95139e-016
lhumerus -27.9827 -5.47559 89.8067
lradius 27.0807
lwrist -3.7628
lhand -17.9424 16.1998
lfingers 7.12502
lthumb 8.3259 46.0157
rfemur -6.91201 19.0757 21.9293
rtibia 28.2115
rfoot -28.4945 -29.0141
rtoes -19.8979
lfemur -4.61709 -19.7385 -25.3027
ltibia 25.7086
lfoot -24.5029 26.1183
ltoes 3.59403
40
root -25.6297 15.1743 0.0606361 -169.44 -86.2625 167.848
lowerback 2.69724 1.95401 -3.67476
upperback 3.30815 2.50064 -1.61146
thorax 1.80269 1.15784 0.37146
lowerneck -10.368 1.09437 4.36886
upperneck 5.12454 0.798063 0.563251
head 3.5333 0.507923 -0.539385
rclavicle 2.92213e-014 -2.38542e-014
rhumerus -31.2103 0.709054 -91.3958
rradius 30.7856
rwrist -14.4147
rhand -19.671 -0.8397
rfingers 7.12502
rthumb 6.65745 -30.715
lclavicle 2.92213e-014 -2.38542e-014
lhumerus -27.9329 -5.40534 89.8147
lradius 27.0108
lwrist -3.70591
lhand -18.2679 15.8838
lfingers 7.12502
lthumb 8.01177 45.7119
rfemur -6.93754 19.0928 22.0129
rtibia 28.184
rfoot -28.4712 -29.0148
rtoes -19.8856
lfemur -4.66066 -19.7519 -25.204
ltibia 25.7347
lfoot -24.5008 26.1651
ltoes 3.57828
41
root -25.6287 15.175 0.0605429 -171.492 -86.2931 169.914
lowerback 2.70477 1.94658 -3.55851
upperback 3.29367 2.49251 -1.54876
thorax 1.78555 1.15674 0.370698
lowerneck -10.3008 1.07125 4.25458
upperneck 5.09879 0.780446 0.646292
head 3.50891 0.499772 -0.492704
rclavicle -2.73329e-014 1.35174e-014
rhumerus -31.3278 0.752679 -91.3816
rradius 30.8464
rwrist -14.3853
rhand -19.7104 -0.816301
rfingers 7.12502
rthumb 6.61939 -30.6928
lclavicle -2.73329e-014 1.35174e-014
lhumerus -27.9844 -5.30388 89.8542
lradius 26.9931
lwrist -3.69725
lhand -18.4544 15.8299
lfingers 7.12502
lthumb 7.83177 45.6648
rfemur -6.9275 19.091 22.1615
rtibia 28.1365
rfoot -28.4831 -29.0106
rtoes -19.7628
lfemur -4.69869 -19.7601 -25.0512
ltibia 25.7832
lfoot -24.4965 26.1716
ltoes 3.0641
42
root -25.6277 15.1753 0.061143 -172.092 -86.3379 170.503
lowerback 2.76699 1.94283 -3.49417
upperback 3.26151 2.48499 -1.53
thorax 1.71945 1.15585 0.351477
lowerneck -10.2301 1.03485 4.18944
upperneck 5.1172 0.740938 0.690224
head 3.49977 0.480955 -0.469132
rclavicle -2.38542e-015 -2.06736e-014
rhumerus -31.4543 0.691831 -91.3625
rradius 30.853
rwrist -14.2137
rhand -19.7728 -0.855391
rfingers 7.12502
rthumb 6.55917 -30.7338
lclavicle -2.38542e-015 -2.06736e-014
lhumerus -28.0888 -5.26233 89.887
lradius 27.006
lwrist -3.77189
lhand -18.3385 15.9587
lfingers 7.12502
lthumb 7.94365 45.7895
rfemur -6.88938 19.0577 22.211
rtibia 28.0904
rfoot -28.5252 -29.0049
rtoes -19.6541
lfemur -4.72513 -19.7266 -25.0005
ltibia 25.8368
lfoot -24.4591 26.1542
ltoes 2.35671
43
root -25.6274 15.1745 0.0618006 -171.907 -86.3598 170.299
lowerback 2.7725 1.92306 -3.50009
upperback 3.26937 2.45834 -1.52536
thorax 1.72486 1.14214 0.359894
lowerneck -10.1929 1.03296 4.1854
upperneck 5.12828 0.740546 0.693424
head 3.49631 0.480948 -0.46742
rclavicle 1.07344e-014 -9.54166e-015
rhumerus -31.4707 0.659246 -91.3417
rradius 30.7964
rwrist -14.2587
rhand -19.6888 -0.725887
rfingers 7.12502
rthumb 6.64028 -30.6018
lclavicle 1.07344e-014 -9.54166e-015
lhumerus -28.1328 -5.19865 89.8878
lradius 27.0076
lwrist -3.7333
lhand -18.136 16.0543
lfingers 7.12502
lthumb 8.13905 45.8775
rfemur -6.85395 19.0421 22.2042
rtibia 28.0644
rfoot -28.5998 -29.0029
rtoes -19.5855
lfemur -4.71773 -19.7618 -25.0218
ltibia 25.8697
lfoot -24.565 26.1199
ltoes 2.80236
44
root -25.6275 15.174 0.0621714 -171.721 -86.3558 170.109
lowerback 2.76545 1.90373 -3.52344
upperback 3.28343 2.4327 -1.51876
thorax 1.74292 1.12824 0.380555
lowerneck -10.2456 1.05693 4.19414
upperneck 5.1745 0.768704 0.682447
head 3.5236 0.495593 -0.470777
rclavicle -1.80894e-014 7.95139e-015
rhumerus -31.4369 0.619263 -91.2895
rradius 30.7133
rwrist -14.4566
rhand -19.414 -0.467675
rfingers 7.12502
rthumb 6.90553 -30.335
lclavicle -1.80894e-014 7.95139e-015
lhumerus -28.1564 -5.13554 89.8855
lradius 27.0283
lwrist -3.60046
lhand -18.2021 15.8992
lfingers 7.12502
lthumb 8.07526 45.7249
rfemur -6.85571 19.0386 22.1895
rtibia 28.0779
rfoot -28.6317 -28.9903
rtoes -19.5649
lfemur -4.69469 -19.8144 -25.0469
ltibia 25.858
lfoot -24.6543 26.1024
ltoes 3.30086
45
root -25.6269 15.175 0.0615866 -170.936 -86.3668 169.319
lowerback 2.72176 1.89104 -3.58778
upperback 3.33128 2.41753 -1.51411
thorax 1.81458 1.11722 0.423694
lowerneck -10.3331 1.06863 4.20584
upperneck 5.2079 0.781981 0.630351
head 3.55328 0.501056 -0.489183
rclavicle 7.05686e-015 1.43125e-014
rhumerus -31.3528 0.562281 -91.235
rradius 30.6001
rwrist -14.3863
rhand -19.3177 -0.262092
rfingers 7.12502
rthumb 6.99847 -30.1264
lclavicle 7.05686e-015 1.43125e-014
lhumerus -28.1263 -5.01104 89.8826
lradius 27.0288
lwrist -3.6344
lhand -18.58 15.4689
lfingers 7.12502
lthumb 7.71058 45.3084
rfemur -6.86328 19.0379 22.1428
rtibia 28.1069
rfoot -28.5946 -28.9974
rtoes -19.588
lfemur -4.68785 -19.7788 -25.0896
ltibia 25.828
lfoot -24.5406 26.1192
ltoes 2.80292
46
root -25.6262 15.175 0.0608616 -169.291 -86.3803 167.642
lowerback 2.80232 1.87358 -3.69544
upperback 3.30099 2.38738 -1.53395
thorax 1.73604 1.10141 0.460423
lowerneck -10.3328 1.08322 4.2477
upperneck 5.28537 0.800864 0.556672
head 3.58189 0.509647 -0.519892
rclavicle 2.94698e-014 -1.98785e-014
rhumerus -31.4244 0.54104 -91.2446
rradius 30.5107
rwrist -14.1628
rhand -19.3813 -0.369232
rfingers 7.12502
rthumb 6.93707 -30.2356
lclavicle 2.94698e-014 -1.98785e-014
lhumerus -28.2318 -4.92663 89.8813
lradius 26.9734
lwrist -3.64191
lhand -18.8945 15.2628
lfingers 7.12502
lthumb 7.40701 45.1131
rfemur -6.83524 19.0385 22.0461
rtibia 28.1232
rfoot -28.6247 -28.9971
rtoes -19.4774
lfemur -4.66399 -19.7731 -25.2025
ltibia 25.8098
lfoot -24.4026 26.1961
ltoes 2.14632
